<svg width="192" height="190" viewBox="0 0 192 190" fill="none" xmlns="http://www.w3.org/2000/svg">
<path d="M96 11.875C97.5913 11.875 99.1174 12.5006 100.243 13.6141C101.368 14.7276 102 16.2378 102 17.8125V23.75H126C130.774 23.75 135.352 25.6267 138.728 28.9672C142.104 32.3077 144 36.8383 144 41.5625V77.1875C144 81.9117 142.104 86.4424 138.728 89.7828C135.352 93.1233 130.774 95 126 95H66C61.2261 95 56.6477 93.1233 53.2721 89.7828C49.8964 86.4424 48 81.9117 48 77.1875V41.5625C48 36.8383 49.8964 32.3077 53.2721 28.9672C56.6477 25.6267 61.2261 23.75 66 23.75H90V17.8125C90 16.2378 90.6321 14.7276 91.7574 13.6141C92.8826 12.5006 94.4087 11.875 96 11.875ZM54 112.812C49.2261 112.812 44.6477 114.689 41.2721 118.03C37.8964 121.37 36 125.901 36 130.625V134.781C36 150.278 43.2 161.5 54.648 168.542C65.748 175.37 80.52 178.125 96 178.125C111.564 178.125 126.336 175.382 137.424 168.542C148.872 161.5 156 150.254 156 134.781V130.625C156 125.901 154.104 121.37 150.728 118.03C147.352 114.689 142.774 112.812 138 112.812H54ZM78 68.2812C80.3869 68.2812 82.6761 67.3429 84.364 65.6727C86.0518 64.0024 87 61.7371 87 59.375C87 57.0129 86.0518 54.7476 84.364 53.0773C82.6761 51.4071 80.3869 50.4688 78 50.4688C75.6131 50.4688 73.3239 51.4071 71.636 53.0773C69.9482 54.7476 69 57.0129 69 59.375C69 61.7371 69.9482 64.0024 71.636 65.6727C73.3239 67.3429 75.6131 68.2812 78 68.2812ZM123 59.375C123 57.0129 122.052 54.7476 120.364 53.0773C118.676 51.4071 116.387 50.4688 114 50.4688C111.613 50.4688 109.324 51.4071 107.636 53.0773C105.948 54.7476 105 57.0129 105 59.375C105 61.7371 105.948 64.0024 107.636 65.6727C109.324 67.3429 111.613 68.2812 114 68.2812C116.387 68.2812 118.676 67.3429 120.364 65.6727C122.052 64.0024 123 61.7371 123 59.375Z" fill="#009292"/>
</svg>
