<svg width="22" height="22" viewBox="0 0 22 22" fill="none" xmlns="http://www.w3.org/2000/svg">
<path d="M17 4.44195C17 4.44195 19 3.43895 20.241 4.45495C20.443 4.61795 20.695 4.94195 20.806 5.17895C21 5.59595 21 5.99995 21 6.80995V17.819C21 18.825 19.96 19.516 19 19.292C18.0161 19.0659 17.0095 18.9535 16 18.957C14.083 18.957 12.332 19.343 11 19.979C9.668 20.615 7.917 21 6 21C4.934 21 3.92 20.88 3 20.666C2.409 20.527 2.113 20.458 1.759 20.172C1.52572 19.9689 1.33387 19.7228 1.194 19.447C1 19.03 1 18.6259 1 17.8169V6.80995C1 5.80195 2.04 5.10995 3 5.33595C3.775 5.51695 4.617 5.62995 5.5 5.66095" stroke="white" stroke-width="1.5" stroke-linecap="round" stroke-linejoin="round"/>
<path d="M4.5 13.5V13.509M17.5 11.492V11.502M8.5 4.5C8.992 5.006 10.3 7 11 7M11 7C11.7 7 13.008 5.006 13.5 4.5M11 7V1M13.5 12.5C13.5 13.163 13.2366 13.7989 12.7678 14.2678C12.2989 14.7366 11.663 15 11 15C10.337 15 9.70107 14.7366 9.23223 14.2678C8.76339 13.7989 8.5 13.163 8.5 12.5C8.5 11.837 8.76339 11.2011 9.23223 10.7322C9.70107 10.2634 10.337 10 11 10C11.663 10 12.2989 10.2634 12.7678 10.7322C13.2366 11.2011 13.5 11.837 13.5 12.5Z" stroke="white" stroke-width="1.5" stroke-linecap="round" stroke-linejoin="round"/>
</svg>
