<svg width="22" height="22" viewBox="0 0 22 22" fill="none" xmlns="http://www.w3.org/2000/svg">
<path d="M6 5.67002C4.934 5.67002 3.92 5.55002 3 5.33602C2.04 5.11102 1 5.80202 1 6.80902V17.818C1 18.626 1 19.03 1.194 19.447C1.304 19.685 1.557 20.008 1.759 20.171C2.113 20.458 2.409 20.527 3 20.665C3.92 20.881 4.934 21 6 21C7.917 21 9.668 20.614 11 19.978C12.332 19.342 14.083 18.956 16 18.956C17.066 18.956 18.08 19.076 19 19.291C19.96 19.515 21 18.824 21 17.817V6.81002C21 6.00102 21 5.59702 20.806 5.18002C20.666 4.90457 20.4742 4.65874 20.241 4.45602C19 3.43902 17 4.44202 17 4.44202" stroke="white" stroke-width="1.5" stroke-linecap="round" stroke-linejoin="round"/>
<path d="M4.5 13.5V13.509M17.5 11.492V11.502M8.5 3.5C8.992 2.994 10.3 1 11 1M11 1C11.7 1 13.008 2.994 13.5 3.5M11 1V7M13.5 12.5C13.5 13.163 13.2366 13.7989 12.7678 14.2678C12.2989 14.7366 11.663 15 11 15C10.337 15 9.70107 14.7366 9.23223 14.2678C8.76339 13.7989 8.5 13.163 8.5 12.5C8.5 11.837 8.76339 11.2011 9.23223 10.7322C9.70107 10.2634 10.337 10 11 10C11.663 10 12.2989 10.2634 12.7678 10.7322C13.2366 11.2011 13.5 11.837 13.5 12.5Z" stroke="white" stroke-width="1.5" stroke-linecap="round" stroke-linejoin="round"/>
</svg>
