<svg width="18" height="19" viewBox="0 0 18 19" fill="none" xmlns="http://www.w3.org/2000/svg">
<path d="M14.8333 18H3.16667C2.72464 18 2.30072 17.7893 1.98816 17.4142C1.67559 17.0391 1.5 16.5304 1.5 16V7C1.5 6.46957 1.67559 5.96086 1.98816 5.58579C2.30072 5.21071 2.72464 5 3.16667 5H14.8333C15.2754 5 15.6993 5.21071 16.0118 5.58579C16.3244 5.96086 16.5 6.46957 16.5 7V16C16.5 16.5304 16.3244 17.0391 16.0118 17.4142C15.6993 17.7893 15.2754 18 14.8333 18Z" stroke="#009292" stroke-width="1.5"/>
<path d="M12.7502 12C12.6397 12 12.5337 11.9473 12.4555 11.8536C12.3774 11.7598 12.3335 11.6326 12.3335 11.5C12.3335 11.3674 12.3774 11.2402 12.4555 11.1464C12.5337 11.0527 12.6397 11 12.7502 11C12.8607 11 12.9667 11.0527 13.0448 11.1464C13.1229 11.2402 13.1668 11.3674 13.1668 11.5C13.1668 11.6326 13.1229 11.7598 13.0448 11.8536C12.9667 11.9473 12.8607 12 12.7502 12Z" fill="#009292" stroke="#009292" stroke-width="1.5" stroke-linecap="round" stroke-linejoin="round"/>
<path d="M14 4.99996V3.60296C13.9999 3.29646 13.9412 2.99408 13.8282 2.71918C13.7153 2.44427 13.5512 2.20419 13.3487 2.01747C13.1461 1.83075 12.9105 1.7024 12.66 1.64232C12.4096 1.58224 12.151 1.59204 11.9042 1.67096L2.7375 4.60396C2.38254 4.71747 2.06878 4.96852 1.84499 5.31809C1.6212 5.66765 1.49992 6.09615 1.5 6.53696V6.99996" stroke="#009292" stroke-width="1.5"/>
</svg>
