<svg width="20" height="20" viewBox="0 0 20 20" fill="none" xmlns="http://www.w3.org/2000/svg">
<path d="M10 6C10.5523 6 11 5.55228 11 5C11 4.44772 10.5523 4 10 4C9.44772 4 9 4.44772 9 5C9 5.55228 9.44772 6 10 6Z" fill="#009292"/>
<path d="M4 16H16V18H4V16ZM8 10.83L10.792 13.624L14.724 9.689L16 11V7H12L13.31 8.275L10.791 10.794L8 8L4 12L5.414 13.414L8 10.83Z" fill="#009292"/>
<path d="M17 1.81824H13.702C13.603 1.68438 13.4961 1.55541 13.382 1.43188L13.372 1.42097C12.637 0.643308 11.6034 0.149769 10.482 0.0409711C10.1635 -0.013657 9.83652 -0.013657 9.518 0.0409711C8.39656 0.149769 7.36298 0.643308 6.628 1.42097L6.618 1.43188C6.5039 1.55511 6.39708 1.68378 6.298 1.81733V1.81824H3C2.20459 1.81896 1.44199 2.10653 0.879557 2.61783C0.31712 3.12914 0.000794215 3.82241 0 4.5455V17.2727C0.000794215 17.9958 0.31712 18.6891 0.879557 19.2004C1.44199 19.7117 2.20459 19.9993 3 20H17C17.7954 19.9993 18.558 19.7117 19.1204 19.2004C19.6829 18.6891 19.9992 17.9958 20 17.2727V4.5455C19.9992 3.82241 19.6829 3.12914 19.1204 2.61783C18.558 2.10653 17.7954 1.81896 17 1.81824ZM18 17.2727C18 17.5138 17.8946 17.7451 17.7071 17.9156C17.5196 18.086 17.2652 18.1818 17 18.1818H3C2.73478 18.1818 2.48043 18.086 2.29289 17.9156C2.10536 17.7451 2 17.5138 2 17.2727V4.5455C2 4.3044 2.10536 4.07317 2.29289 3.90268C2.48043 3.73219 2.73478 3.63641 3 3.63641H7.55C7.66476 3.12265 7.97136 2.66075 8.41787 2.32897C8.86438 1.9972 9.42332 1.81596 10 1.81596C10.5767 1.81596 11.1356 1.9972 11.5821 2.32897C12.0286 2.66075 12.3352 3.12265 12.45 3.63641H17C17.2652 3.63641 17.5196 3.73219 17.7071 3.90268C17.8946 4.07317 18 4.3044 18 4.5455V17.2727Z" fill="#009292"/>
</svg>
