<svg width="1" height="1" viewBox="0 0 16 16" fill="none" xmlns="http://www.w3.org/2000/svg">
<path fill-rule="evenodd" clip-rule="evenodd" d="M6.99056 11.1057C9.69751 11.1057 11.8919 9.06969 11.8919 6.55814C11.8919 4.04659 9.69751 2.01057 6.99056 2.01057C4.28361 2.01057 2.08919 4.04659 2.08919 6.55814C2.08919 9.06969 4.28361 11.1057 6.99056 11.1057ZM6.99056 12.1163C10.2991 12.1163 12.9811 9.62782 12.9811 6.55814C12.9811 3.48846 10.2991 1 6.99056 1C3.68207 1 1 3.48846 1 6.55814C1 9.62782 3.68207 12.1163 6.99056 12.1163Z" fill="#222222"/>
<path fill-rule="evenodd" clip-rule="evenodd" d="M14.2298 15L9.87305 10.9577L10.6432 10.2431L15 14.2854L14.2298 15Z" fill="#222222"/>
<path fill-rule="evenodd" clip-rule="evenodd" d="M6.99056 11.1057C9.69751 11.1057 11.8919 9.06969 11.8919 6.55814C11.8919 4.04659 9.69751 2.01057 6.99056 2.01057C4.28361 2.01057 2.08919 4.04659 2.08919 6.55814C2.08919 9.06969 4.28361 11.1057 6.99056 11.1057ZM6.99056 12.1163C10.2991 12.1163 12.9811 9.62782 12.9811 6.55814C12.9811 3.48846 10.2991 1 6.99056 1C3.68207 1 1 3.48846 1 6.55814C1 9.62782 3.68207 12.1163 6.99056 12.1163Z" stroke="#222222" stroke-width="0.5"/>
<path fill-rule="evenodd" clip-rule="evenodd" d="M14.2298 15L9.87305 10.9577L10.6432 10.2431L15 14.2854L14.2298 15Z" stroke="#222222" stroke-width="0.5"/>
</svg>
