<svg width="16" height="20" viewBox="0 0 16 20" fill="none" xmlns="http://www.w3.org/2000/svg">
<path d="M15.4333 15.4596C15.6871 15.2058 15.6871 14.7942 15.4333 14.5404L11.2967 10.4038C11.0429 10.15 10.6313 10.15 10.3775 10.4038C10.1236 10.6576 10.1236 11.0692 10.3775 11.323L14.0544 15L10.3775 18.677C10.1236 18.9308 10.1236 19.3424 10.3775 19.5962C10.6313 19.85 11.0429 19.85 11.2967 19.5962L15.4333 15.4596ZM1.68213 15.65H14.9737V14.35H1.68213V15.65Z" fill="#009292"/>
<path d="M0.54033 4.54038C0.286489 4.79422 0.286489 5.20578 0.54033 5.45962L4.6769 9.59619C4.93075 9.85003 5.3423 9.85003 5.59614 9.59619C5.84998 9.34235 5.84998 8.9308 5.59614 8.67696L1.91919 5L5.59614 1.32304C5.84998 1.0692 5.84998 0.657647 5.59614 0.403806C5.3423 0.149965 4.93075 0.149965 4.6769 0.403806L0.54033 4.54038ZM14.2915 4.35H0.999949V5.65H14.2915V4.35Z" fill="#009292"/>
</svg>
